<svg width="28" height="25" viewBox="0 0 28 25" fill="none" xmlns="http://www.w3.org/2000/svg">
<path d="M10.0001 0.666626L7.56008 3.33329H3.33341C1.86675 3.33329 0.666748 4.53329 0.666748 5.99996V22C0.666748 23.4666 1.86675 24.6666 3.33341 24.6666H24.6667C26.1334 24.6666 27.3334 23.4666 27.3334 22V5.99996C27.3334 4.53329 26.1334 3.33329 24.6667 3.33329H20.4401L18.0001 0.666626H10.0001ZM14.0001 20.6666C10.3201 20.6666 7.33342 17.68 7.33342 14C7.33342 10.32 10.3201 7.33329 14.0001 7.33329C17.6801 7.33329 20.6667 10.32 20.6667 14C20.6667 17.68 17.6801 20.6666 14.0001 20.6666Z" fill="#2A7AE4"/>
</svg>
