<svg width="28" height="28" viewBox="0 0 28 28" fill="none" xmlns="http://www.w3.org/2000/svg">
<path d="M25 0H3C1.3125 0 0 1.375 0 3V25C0 26.6875 1.3125 28 3 28H25C26.625 28 28 26.6875 28 25V3C28 1.375 26.625 0 25 0ZM15.1875 21.875C15.1875 24.5625 13.625 25.8125 11.25 25.8125C9.1875 25.8125 7.9375 24.75 7.3125 23.4375L9.5 22.125C9.875 22.875 10.25 23.5 11.1875 23.5C12 23.5 12.5625 23.125 12.5625 21.8125V12.875H15.1875V21.875ZM21.4375 25.8125C19 25.8125 17.4375 24.6875 16.625 23.125L18.8125 21.9375C19.375 22.8125 20.0625 23.5 21.375 23.5C22.4375 23.5 23.1875 22.9375 23.1875 22.1875C23.1875 21.3125 22.4375 21 21.25 20.4375L20.5625 20.1875C18.6875 19.375 17.4375 18.375 17.4375 16.1875C17.4375 14.25 18.9375 12.75 21.3125 12.75C22.9375 12.75 24.1875 13.3125 25 14.8125L23 16.125C22.5 15.375 22.0625 15 21.25 15C20.5 15 20 15.5 20 16.125C20 16.9375 20.5 17.25 21.625 17.75L22.3125 18.0625C24.5625 19 25.8125 20 25.8125 22.1875C25.8125 24.5625 23.9375 25.8125 21.4375 25.8125Z" fill="#2A7AE4"/>
</svg>
