<svg width="40" height="22" viewBox="0 0 40 22" fill="none" xmlns="http://www.w3.org/2000/svg">
<path d="M20 1.5625C30.6875 1.5625 38.9375 6.0625 38.9375 11C38.9375 16 30.6875 20.5 20 20.5C9.25 20.5 1 16 1 11C1 6.0625 9.25 1.5625 20 1.5625ZM20 0.5C8.9375 0.5 0 5.1875 0 11C0 16.8125 8.9375 21.5625 20 21.5625C31 21.5625 40 16.8125 40 11C40 5.1875 31 0.5 20 0.5ZM13.625 10.1875C13.125 12.6875 11.375 12.4375 9.25 12.4375L10.0625 8.0625C12.4375 8.0625 14.0625 7.8125 13.625 10.1875ZM6.0625 16.9375H8.375L8.875 14.125C11.4375 14.125 13.0625 14.3125 14.5625 12.9375C16.1875 11.4375 16.5625 8.75 15.4375 7.4375C14.8125 6.75 13.875 6.375 12.5 6.375H8.125L6.0625 16.9375ZM17.6875 3.5625L15.625 14.125H17.875L19.0625 8.0625C20.9375 8.0625 21.6875 8 22.0625 8.375C22.375 8.75 22.1875 9.125 21.25 14.125H23.5625C24.5625 9 25 7.875 24.0625 7.0625C23.1875 6.25 21.375 6.375 19.375 6.375L19.9375 3.5625H17.6875ZM31.5625 10.1875C31.0625 12.75 29.25 12.4375 27.125 12.4375L28 8.0625C30.375 8.0625 32 7.8125 31.5625 10.1875ZM24 16.9375H26.3125L26.8125 14.125C29.5 14.125 31 14.25 32.4375 12.9375C34.125 11.4375 34.5 8.75 33.375 7.4375C32.75 6.75 31.75 6.375 30.4375 6.375H26.0625L24 16.9375Z" fill="#2A7AE4"/>
</svg>
