<svg width="32" height="30" viewBox="0 0 32 30" fill="none" xmlns="http://www.w3.org/2000/svg">
<path d="M26.125 10.125C25.75 10 25.4375 9.875 25.125 9.8125C25.125 9.5625 25.1875 9.3125 25.25 9.0625C26 5.375 25.5 2.375 23.8125 1.375C22.1875 0.4375 19.5 1.4375 16.75 3.8125C16.5 4 16.25 4.25 16 4.5C15.8125 4.3125 15.625 4.1875 15.5 4C12.625 1.5 9.75 0.4375 8.0625 1.4375C6.4375 2.375 5.9375 5.1875 6.625 8.75C6.6875 9.0625 6.75 9.4375 6.875 9.75C6.4375 9.875 6.0625 10 5.6875 10.125C2.375 11.3125 0 13.125 0 15C0 16.9375 2.5 18.9375 6 20.125C6.25 20.1875 6.5625 20.3125 6.8125 20.375C6.75 20.75 6.6875 21.125 6.5625 21.5C5.9375 24.9375 6.4375 27.6875 8.0625 28.625C9.75 29.625 12.625 28.625 15.375 26.1875C15.5625 26 15.8125 25.8125 16 25.625C16.3125 25.875 16.5625 26.125 16.875 26.375C19.5625 28.6875 22.1875 29.625 23.8125 28.6875C25.5 27.6875 26.0625 24.75 25.375 21.125C25.3125 20.875 25.25 20.5625 25.1875 20.3125C25.375 20.25 25.5625 20.1875 25.75 20.125C29.375 18.9375 32 17 32 15C32 13.125 29.5 11.25 26.125 10.125ZM17.625 4.8125C20 2.75 22.125 2 23.125 2.5625C24.1875 3.125 24.625 5.625 23.9375 8.8125C23.875 9.0625 23.875 9.25 23.8125 9.4375C22.375 9.125 21 8.9375 19.5625 8.8125C18.75 7.625 17.875 6.5 16.9375 5.4375C17.1875 5.25 17.375 5 17.625 4.8125ZM10.4375 18.25C10.75 18.8125 11.0625 19.3125 11.4375 19.875C10.4375 19.75 9.4375 19.625 8.5 19.375C8.8125 18.5 9.125 17.5625 9.5 16.625C9.8125 17.1875 10.125 17.6875 10.4375 18.25ZM8.5 10.75C9.4375 10.5 10.375 10.375 11.375 10.25C11.0625 10.75 10.75 11.3125 10.4375 11.8125C10.125 12.375 9.8125 12.875 9.5 13.4375C9.125 12.5 8.8125 11.625 8.5 10.75ZM10.25 15.0625C10.625 14.1875 11.125 13.3125 11.5625 12.5C12.0625 11.6875 12.5625 10.875 13.125 10.0625C14.0625 10 15 9.9375 16 9.9375C16.9375 9.9375 17.9375 10 18.8125 10.0625C19.375 10.875 19.875 11.6875 20.375 12.5C20.8125 13.3125 21.3125 14.125 21.6875 15C21.3125 15.875 20.875 16.75 20.375 17.5625C19.875 18.375 19.375 19.1875 18.875 20C17.9375 20.0625 16.9375 20.125 16 20.125C15 20.125 14.0625 20.0625 13.125 20C12.5625 19.1875 12.0625 18.375 11.5625 17.5625C11.125 16.75 10.6875 15.875 10.25 15.0625ZM21.5 18.25C21.875 17.6875 22.125 17.125 22.4375 16.5625C22.8125 17.5 23.1875 18.375 23.5 19.3125C22.5 19.5625 21.5625 19.75 20.5625 19.8125C20.875 19.3125 21.1875 18.75 21.5 18.25ZM22.4375 13.4375C22.125 12.875 21.8125 12.375 21.5 11.8125C21.1875 11.3125 20.875 10.75 20.5625 10.25C21.5625 10.375 22.5625 10.5625 23.4375 10.75C23.125 11.6875 22.8125 12.5625 22.4375 13.4375ZM16 6.4375C16.625 7.125 17.25 7.875 17.8125 8.6875C16.625 8.625 15.375 8.625 14.125 8.6875C14.75 7.875 15.375 7.125 16 6.4375ZM8.75 2.5625C9.8125 2 12.125 2.875 14.5625 5C14.75 5.1875 14.875 5.3125 15.0625 5.4375C14.0625 6.5 13.1875 7.625 12.375 8.8125C10.9375 8.9375 9.5625 9.125 8.1875 9.4375C8.0625 9.125 8 8.8125 7.9375 8.4375C7.375 5.4375 7.75 3.1875 8.75 2.5625ZM7.1875 19.0625C6.9375 19 6.6875 18.9375 6.4375 18.8125C5.125 18.375 3.5625 17.75 2.5 16.875C1.875 16.4375 1.4375 15.75 1.3125 15C1.3125 13.875 3.3125 12.375 6.125 11.375C6.5 11.25 6.875 11.1875 7.25 11.0625C7.625 12.4375 8.1875 13.75 8.75 15.0625C8.125 16.3125 7.625 17.6875 7.1875 19.0625ZM14.5 25.1875C13.4375 26.125 12.25 26.875 10.9375 27.375C10.25 27.75 9.5 27.75 8.75 27.5C7.75 26.875 7.375 24.6875 7.9375 21.75C8 21.375 8.0625 21 8.125 20.6875C9.5625 21 10.9375 21.1875 12.375 21.3125C13.1875 22.4375 14.125 23.5625 15.0625 24.625C14.875 24.8125 14.6875 25 14.5 25.1875ZM16 23.6875C15.375 23 14.75 22.25 14.125 21.375C14.75 21.4375 15.375 21.4375 16 21.4375C16.625 21.4375 17.25 21.4375 17.875 21.375C17.3125 22.1875 16.6875 22.9375 16 23.6875ZM24.1875 25.5625C24.125 26.3125 23.75 27 23.1875 27.5C22.1875 28.0625 20.0625 27.3125 17.75 25.375C17.5 25.125 17.25 24.875 16.9375 24.625C17.9375 23.5625 18.8125 22.5 19.625 21.3125C21.0625 21.1875 22.4375 20.9375 23.875 20.625C23.9375 20.875 24 21.125 24.0625 21.375C24.3125 22.75 24.375 24.1875 24.1875 25.5625ZM25.3125 18.8125C25.125 18.875 25 18.9375 24.8125 19C24.375 17.625 23.8125 16.3125 23.1875 15C23.8125 13.75 24.3125 12.4375 24.75 11.0625C25.0625 11.1875 25.375 11.25 25.6875 11.375C28.5625 12.375 30.625 13.875 30.625 15C30.625 16.1875 28.4375 17.8125 25.3125 18.8125ZM16 17.875C17.5625 17.875 18.8125 16.625 18.8125 15C18.8125 13.4375 17.5625 12.1875 16 12.1875C14.375 12.1875 13.125 13.4375 13.125 15C13.125 16.625 14.375 17.875 16 17.875Z" fill="#2A7AE4"/>
</svg>
